<mxfile host="app.diagrams.net" modified="2023-05-04T04:36:30.193Z" agent="Mozilla/5.0 (Windows NT 10.0; Win64; x64) AppleWebKit/537.36 (KHTML, like Gecko) Chrome/112.0.0.0 Safari/537.36" etag="jp_Xwfruge4Rfm09gZjZ" version="21.2.7" type="github">
  <diagram name="1 oldal" id="mIj-wj5mL6xJVqdU4yEN">
    <mxGraphModel dx="2414" dy="756" grid="1" gridSize="10" guides="1" tooltips="1" connect="1" arrows="1" fold="1" page="1" pageScale="1" pageWidth="980" pageHeight="1390" math="0" shadow="0">
      <root>
        <mxCell id="0" />
        <mxCell id="1" parent="0" />
        <mxCell id="4-5zVlKC4tQtkhV0NyLB-4" value="" style="rounded=1;whiteSpace=wrap;html=1;" vertex="1" parent="1">
          <mxGeometry x="330" y="10" width="320" height="60" as="geometry" />
        </mxCell>
        <mxCell id="4-5zVlKC4tQtkhV0NyLB-5" value="&lt;font style=&quot;font-size: 18px;&quot;&gt;Mink&lt;/font&gt;" style="text;html=1;strokeColor=none;fillColor=none;align=center;verticalAlign=middle;whiteSpace=wrap;rounded=0;" vertex="1" parent="1">
          <mxGeometry x="430" y="15" width="120" height="50" as="geometry" />
        </mxCell>
        <mxCell id="4-5zVlKC4tQtkhV0NyLB-6" value="" style="rounded=1;whiteSpace=wrap;html=1;" vertex="1" parent="1">
          <mxGeometry x="-117.5" y="110" width="120" height="60" as="geometry" />
        </mxCell>
        <mxCell id="4-5zVlKC4tQtkhV0NyLB-7" value="" style="rounded=1;whiteSpace=wrap;html=1;" vertex="1" parent="1">
          <mxGeometry x="167.5" y="110" width="120" height="60" as="geometry" />
        </mxCell>
        <mxCell id="4-5zVlKC4tQtkhV0NyLB-8" value="" style="rounded=1;whiteSpace=wrap;html=1;" vertex="1" parent="1">
          <mxGeometry x="430" y="110" width="120" height="60" as="geometry" />
        </mxCell>
        <mxCell id="4-5zVlKC4tQtkhV0NyLB-9" value="" style="rounded=1;whiteSpace=wrap;html=1;" vertex="1" parent="1">
          <mxGeometry x="700" y="110" width="120" height="60" as="geometry" />
        </mxCell>
        <mxCell id="4-5zVlKC4tQtkhV0NyLB-10" value="" style="rounded=1;whiteSpace=wrap;html=1;" vertex="1" parent="1">
          <mxGeometry x="980" y="110" width="120" height="60" as="geometry" />
        </mxCell>
        <mxCell id="4-5zVlKC4tQtkhV0NyLB-15" value="" style="endArrow=none;html=1;rounded=0;exitX=0.5;exitY=0;exitDx=0;exitDy=0;" edge="1" parent="1" source="4-5zVlKC4tQtkhV0NyLB-8">
          <mxGeometry width="50" height="50" relative="1" as="geometry">
            <mxPoint x="440" y="120" as="sourcePoint" />
            <mxPoint x="490" y="70" as="targetPoint" />
          </mxGeometry>
        </mxCell>
        <mxCell id="4-5zVlKC4tQtkhV0NyLB-17" value="" style="endArrow=none;html=1;rounded=0;entryX=0;entryY=0.5;entryDx=0;entryDy=0;exitX=1;exitY=0.5;exitDx=0;exitDy=0;" edge="1" parent="1" source="4-5zVlKC4tQtkhV0NyLB-7" target="4-5zVlKC4tQtkhV0NyLB-8">
          <mxGeometry width="50" height="50" relative="1" as="geometry">
            <mxPoint x="390" y="210" as="sourcePoint" />
            <mxPoint x="440" y="160" as="targetPoint" />
            <Array as="points" />
          </mxGeometry>
        </mxCell>
        <mxCell id="4-5zVlKC4tQtkhV0NyLB-18" value="" style="endArrow=none;html=1;rounded=0;entryX=0;entryY=0.5;entryDx=0;entryDy=0;exitX=1;exitY=0.5;exitDx=0;exitDy=0;" edge="1" parent="1" source="4-5zVlKC4tQtkhV0NyLB-6" target="4-5zVlKC4tQtkhV0NyLB-7">
          <mxGeometry width="50" height="50" relative="1" as="geometry">
            <mxPoint x="390" y="210" as="sourcePoint" />
            <mxPoint x="440" y="160" as="targetPoint" />
            <Array as="points" />
          </mxGeometry>
        </mxCell>
        <mxCell id="4-5zVlKC4tQtkhV0NyLB-19" value="" style="endArrow=none;html=1;rounded=0;entryX=1;entryY=0.5;entryDx=0;entryDy=0;exitX=0;exitY=0.5;exitDx=0;exitDy=0;" edge="1" parent="1" source="4-5zVlKC4tQtkhV0NyLB-9" target="4-5zVlKC4tQtkhV0NyLB-8">
          <mxGeometry width="50" height="50" relative="1" as="geometry">
            <mxPoint x="390" y="210" as="sourcePoint" />
            <mxPoint x="440" y="160" as="targetPoint" />
          </mxGeometry>
        </mxCell>
        <mxCell id="4-5zVlKC4tQtkhV0NyLB-20" value="" style="endArrow=none;html=1;rounded=0;entryX=1;entryY=0.5;entryDx=0;entryDy=0;exitX=0;exitY=0.5;exitDx=0;exitDy=0;" edge="1" parent="1" source="4-5zVlKC4tQtkhV0NyLB-10" target="4-5zVlKC4tQtkhV0NyLB-9">
          <mxGeometry width="50" height="50" relative="1" as="geometry">
            <mxPoint x="390" y="210" as="sourcePoint" />
            <mxPoint x="440" y="160" as="targetPoint" />
          </mxGeometry>
        </mxCell>
        <mxCell id="4-5zVlKC4tQtkhV0NyLB-21" value="Rendelések&lt;br&gt;Anyagrendelés&lt;br&gt;Szabászat" style="text;html=1;strokeColor=none;fillColor=none;align=center;verticalAlign=middle;whiteSpace=wrap;rounded=0;" vertex="1" parent="1">
          <mxGeometry x="-87.5" y="125" width="60" height="30" as="geometry" />
        </mxCell>
        <mxCell id="4-5zVlKC4tQtkhV0NyLB-22" value="Gyártásvezetés" style="text;html=1;strokeColor=none;fillColor=none;align=center;verticalAlign=middle;whiteSpace=wrap;rounded=0;" vertex="1" parent="1">
          <mxGeometry x="197.5" y="125" width="60" height="30" as="geometry" />
        </mxCell>
        <mxCell id="4-5zVlKC4tQtkhV0NyLB-23" value="Minőségellenőrzés" style="text;html=1;strokeColor=none;fillColor=none;align=center;verticalAlign=middle;whiteSpace=wrap;rounded=0;" vertex="1" parent="1">
          <mxGeometry x="460" y="125" width="60" height="30" as="geometry" />
        </mxCell>
        <mxCell id="4-5zVlKC4tQtkhV0NyLB-24" value="Üzletkötés" style="text;html=1;strokeColor=none;fillColor=none;align=center;verticalAlign=middle;whiteSpace=wrap;rounded=0;" vertex="1" parent="1">
          <mxGeometry x="730" y="125" width="60" height="30" as="geometry" />
        </mxCell>
        <mxCell id="4-5zVlKC4tQtkhV0NyLB-25" value="Könyvelés" style="text;html=1;strokeColor=none;fillColor=none;align=center;verticalAlign=middle;whiteSpace=wrap;rounded=0;" vertex="1" parent="1">
          <mxGeometry x="1010" y="125" width="60" height="25" as="geometry" />
        </mxCell>
        <mxCell id="4-5zVlKC4tQtkhV0NyLB-26" value="" style="rounded=1;whiteSpace=wrap;html=1;" vertex="1" parent="1">
          <mxGeometry x="-117.5" y="240" width="120" height="60" as="geometry" />
        </mxCell>
        <mxCell id="4-5zVlKC4tQtkhV0NyLB-27" value="" style="endArrow=none;html=1;rounded=0;entryX=0.5;entryY=1;entryDx=0;entryDy=0;exitX=0.5;exitY=0;exitDx=0;exitDy=0;" edge="1" parent="1" source="4-5zVlKC4tQtkhV0NyLB-26" target="4-5zVlKC4tQtkhV0NyLB-6">
          <mxGeometry width="50" height="50" relative="1" as="geometry">
            <mxPoint x="262.5" y="200" as="sourcePoint" />
            <mxPoint x="312.5" y="150" as="targetPoint" />
          </mxGeometry>
        </mxCell>
        <mxCell id="4-5zVlKC4tQtkhV0NyLB-28" value="Elena" style="text;html=1;strokeColor=none;fillColor=none;align=center;verticalAlign=middle;whiteSpace=wrap;rounded=0;" vertex="1" parent="1">
          <mxGeometry x="-87.5" y="255" width="60" height="30" as="geometry" />
        </mxCell>
        <mxCell id="4-5zVlKC4tQtkhV0NyLB-29" value="" style="rounded=1;whiteSpace=wrap;html=1;" vertex="1" parent="1">
          <mxGeometry x="167.5" y="240" width="120" height="60" as="geometry" />
        </mxCell>
        <mxCell id="4-5zVlKC4tQtkhV0NyLB-30" value="" style="endArrow=none;html=1;rounded=0;entryX=0.5;entryY=1;entryDx=0;entryDy=0;exitX=0.5;exitY=0;exitDx=0;exitDy=0;" edge="1" parent="1" source="4-5zVlKC4tQtkhV0NyLB-29">
          <mxGeometry width="50" height="50" relative="1" as="geometry">
            <mxPoint x="547.5" y="200" as="sourcePoint" />
            <mxPoint x="227.5" y="170" as="targetPoint" />
          </mxGeometry>
        </mxCell>
        <mxCell id="4-5zVlKC4tQtkhV0NyLB-31" value="Anyu" style="text;html=1;strokeColor=none;fillColor=none;align=center;verticalAlign=middle;whiteSpace=wrap;rounded=0;" vertex="1" parent="1">
          <mxGeometry x="197.5" y="255" width="60" height="30" as="geometry" />
        </mxCell>
        <mxCell id="4-5zVlKC4tQtkhV0NyLB-32" value="" style="rounded=1;whiteSpace=wrap;html=1;" vertex="1" parent="1">
          <mxGeometry x="430" y="240" width="120" height="60" as="geometry" />
        </mxCell>
        <mxCell id="4-5zVlKC4tQtkhV0NyLB-33" value="" style="endArrow=none;html=1;rounded=0;entryX=0.5;entryY=1;entryDx=0;entryDy=0;exitX=0.5;exitY=0;exitDx=0;exitDy=0;" edge="1" parent="1" source="4-5zVlKC4tQtkhV0NyLB-32">
          <mxGeometry width="50" height="50" relative="1" as="geometry">
            <mxPoint x="810" y="200" as="sourcePoint" />
            <mxPoint x="490" y="170" as="targetPoint" />
          </mxGeometry>
        </mxCell>
        <mxCell id="4-5zVlKC4tQtkhV0NyLB-34" value="Németh Ingrid" style="text;html=1;strokeColor=none;fillColor=none;align=center;verticalAlign=middle;whiteSpace=wrap;rounded=0;" vertex="1" parent="1">
          <mxGeometry x="460" y="255" width="60" height="30" as="geometry" />
        </mxCell>
        <mxCell id="4-5zVlKC4tQtkhV0NyLB-35" value="" style="rounded=1;whiteSpace=wrap;html=1;" vertex="1" parent="1">
          <mxGeometry x="700" y="240" width="120" height="60" as="geometry" />
        </mxCell>
        <mxCell id="4-5zVlKC4tQtkhV0NyLB-36" value="" style="endArrow=none;html=1;rounded=0;entryX=0.5;entryY=1;entryDx=0;entryDy=0;exitX=0.5;exitY=0;exitDx=0;exitDy=0;" edge="1" parent="1" source="4-5zVlKC4tQtkhV0NyLB-35">
          <mxGeometry width="50" height="50" relative="1" as="geometry">
            <mxPoint x="1080" y="200" as="sourcePoint" />
            <mxPoint x="760" y="170" as="targetPoint" />
          </mxGeometry>
        </mxCell>
        <mxCell id="4-5zVlKC4tQtkhV0NyLB-37" value="Ákos" style="text;html=1;strokeColor=none;fillColor=none;align=center;verticalAlign=middle;whiteSpace=wrap;rounded=0;" vertex="1" parent="1">
          <mxGeometry x="730" y="255" width="60" height="30" as="geometry" />
        </mxCell>
        <mxCell id="4-5zVlKC4tQtkhV0NyLB-38" value="" style="rounded=1;whiteSpace=wrap;html=1;" vertex="1" parent="1">
          <mxGeometry x="980" y="240" width="120" height="60" as="geometry" />
        </mxCell>
        <mxCell id="4-5zVlKC4tQtkhV0NyLB-39" value="" style="endArrow=none;html=1;rounded=0;entryX=0.5;entryY=1;entryDx=0;entryDy=0;exitX=0.5;exitY=0;exitDx=0;exitDy=0;" edge="1" parent="1" source="4-5zVlKC4tQtkhV0NyLB-38">
          <mxGeometry width="50" height="50" relative="1" as="geometry">
            <mxPoint x="1360" y="200" as="sourcePoint" />
            <mxPoint x="1040" y="170" as="targetPoint" />
          </mxGeometry>
        </mxCell>
        <mxCell id="4-5zVlKC4tQtkhV0NyLB-40" value="Benedek Éva" style="text;html=1;strokeColor=none;fillColor=none;align=center;verticalAlign=middle;whiteSpace=wrap;rounded=0;" vertex="1" parent="1">
          <mxGeometry x="1010" y="255" width="60" height="30" as="geometry" />
        </mxCell>
        <mxCell id="4-5zVlKC4tQtkhV0NyLB-41" value="" style="rounded=1;whiteSpace=wrap;html=1;" vertex="1" parent="1">
          <mxGeometry x="-160" y="380" width="205" height="110" as="geometry" />
        </mxCell>
        <mxCell id="4-5zVlKC4tQtkhV0NyLB-43" value="Apu&lt;br&gt;Valaki új&lt;br&gt;Attila" style="text;html=1;strokeColor=none;fillColor=none;align=center;verticalAlign=middle;whiteSpace=wrap;rounded=0;" vertex="1" parent="1">
          <mxGeometry x="-87.5" y="420" width="60" height="30" as="geometry" />
        </mxCell>
        <mxCell id="4-5zVlKC4tQtkhV0NyLB-45" value="" style="endArrow=none;html=1;rounded=0;entryX=0.5;entryY=1;entryDx=0;entryDy=0;exitX=0.439;exitY=-0.009;exitDx=0;exitDy=0;exitPerimeter=0;" edge="1" parent="1">
          <mxGeometry width="50" height="50" relative="1" as="geometry">
            <mxPoint x="227.4949999999999" y="379.01" as="sourcePoint" />
            <mxPoint x="227.5" y="300" as="targetPoint" />
          </mxGeometry>
        </mxCell>
        <mxCell id="4-5zVlKC4tQtkhV0NyLB-47" value="" style="rounded=1;whiteSpace=wrap;html=1;" vertex="1" parent="1">
          <mxGeometry x="125" y="380" width="205" height="210" as="geometry" />
        </mxCell>
        <mxCell id="4-5zVlKC4tQtkhV0NyLB-48" value="" style="endArrow=none;html=1;rounded=0;entryX=0.5;entryY=1;entryDx=0;entryDy=0;exitX=0.5;exitY=0;exitDx=0;exitDy=0;" edge="1" parent="1" source="4-5zVlKC4tQtkhV0NyLB-41" target="4-5zVlKC4tQtkhV0NyLB-26">
          <mxGeometry width="50" height="50" relative="1" as="geometry">
            <mxPoint x="262.5" y="370" as="sourcePoint" />
            <mxPoint x="312.5" y="320" as="targetPoint" />
          </mxGeometry>
        </mxCell>
        <mxCell id="4-5zVlKC4tQtkhV0NyLB-49" value="1&lt;br&gt;2&lt;br&gt;3&lt;br&gt;4&lt;br&gt;5&lt;br&gt;6&lt;br&gt;7&lt;br&gt;8&lt;br&gt;9&lt;br&gt;10&lt;br&gt;11&lt;br&gt;12&lt;br&gt;13" style="text;html=1;strokeColor=none;fillColor=none;align=center;verticalAlign=middle;whiteSpace=wrap;rounded=0;" vertex="1" parent="1">
          <mxGeometry x="197.5" y="470" width="60" height="30" as="geometry" />
        </mxCell>
        <mxCell id="4-5zVlKC4tQtkhV0NyLB-51" value="" style="rounded=1;whiteSpace=wrap;html=1;" vertex="1" parent="1">
          <mxGeometry x="388" y="380" width="205" height="110" as="geometry" />
        </mxCell>
        <mxCell id="4-5zVlKC4tQtkhV0NyLB-52" value="Lenka" style="text;html=1;strokeColor=none;fillColor=none;align=center;verticalAlign=middle;whiteSpace=wrap;rounded=0;" vertex="1" parent="1">
          <mxGeometry x="460.5" y="420" width="60" height="30" as="geometry" />
        </mxCell>
        <mxCell id="4-5zVlKC4tQtkhV0NyLB-53" value="" style="endArrow=none;html=1;rounded=0;entryX=0.5;entryY=1;entryDx=0;entryDy=0;exitX=0.5;exitY=0;exitDx=0;exitDy=0;" edge="1" parent="1" source="4-5zVlKC4tQtkhV0NyLB-51">
          <mxGeometry width="50" height="50" relative="1" as="geometry">
            <mxPoint x="810.5" y="370" as="sourcePoint" />
            <mxPoint x="490.5" y="300" as="targetPoint" />
          </mxGeometry>
        </mxCell>
      </root>
    </mxGraphModel>
  </diagram>
</mxfile>
